<mxfile host="app.diagrams.net" agent="Mozilla/5.0 (Windows NT 10.0; Win64; x64) AppleWebKit/537.36 (KHTML, like Gecko) Chrome/130.0.0.0 Safari/537.36 Edg/130.0.0.0" version="24.8.2">
  <diagram name="Page-1" id="xf32habwJUze_nkdAq6A">
    <mxGraphModel dx="786" dy="457" grid="1" gridSize="10" guides="1" tooltips="1" connect="1" arrows="1" fold="1" page="1" pageScale="1" pageWidth="850" pageHeight="1100" math="0" shadow="0">
      <root>
        <mxCell id="0" />
        <mxCell id="1" parent="0" />
        <mxCell id="p-dpf_i9dS1HYKL783vK-36" style="edgeStyle=orthogonalEdgeStyle;rounded=0;orthogonalLoop=1;jettySize=auto;html=1;exitX=0.5;exitY=1;exitDx=0;exitDy=0;entryX=0.5;entryY=0;entryDx=0;entryDy=0;" edge="1" parent="1" source="p-dpf_i9dS1HYKL783vK-1" target="p-dpf_i9dS1HYKL783vK-2">
          <mxGeometry relative="1" as="geometry" />
        </mxCell>
        <mxCell id="p-dpf_i9dS1HYKL783vK-1" value="Start" style="ellipse;whiteSpace=wrap;html=1;" vertex="1" parent="1">
          <mxGeometry x="300" y="40" width="120" height="60" as="geometry" />
        </mxCell>
        <mxCell id="p-dpf_i9dS1HYKL783vK-16" style="edgeStyle=orthogonalEdgeStyle;rounded=0;orthogonalLoop=1;jettySize=auto;html=1;exitX=0.5;exitY=1;exitDx=0;exitDy=0;entryX=0.5;entryY=0;entryDx=0;entryDy=0;" edge="1" parent="1" source="p-dpf_i9dS1HYKL783vK-2" target="p-dpf_i9dS1HYKL783vK-3">
          <mxGeometry relative="1" as="geometry" />
        </mxCell>
        <mxCell id="p-dpf_i9dS1HYKL783vK-2" value="User Sign in" style="rounded=0;whiteSpace=wrap;html=1;" vertex="1" parent="1">
          <mxGeometry x="300" y="190" width="120" height="60" as="geometry" />
        </mxCell>
        <mxCell id="p-dpf_i9dS1HYKL783vK-17" style="edgeStyle=orthogonalEdgeStyle;rounded=0;orthogonalLoop=1;jettySize=auto;html=1;exitX=0.5;exitY=1;exitDx=0;exitDy=0;entryX=0.5;entryY=0;entryDx=0;entryDy=0;" edge="1" parent="1" source="p-dpf_i9dS1HYKL783vK-3" target="p-dpf_i9dS1HYKL783vK-4">
          <mxGeometry relative="1" as="geometry" />
        </mxCell>
        <mxCell id="p-dpf_i9dS1HYKL783vK-3" value="Enter Username and Password" style="rounded=0;whiteSpace=wrap;html=1;" vertex="1" parent="1">
          <mxGeometry x="300" y="300" width="120" height="60" as="geometry" />
        </mxCell>
        <mxCell id="p-dpf_i9dS1HYKL783vK-19" style="edgeStyle=orthogonalEdgeStyle;rounded=0;orthogonalLoop=1;jettySize=auto;html=1;exitX=0.5;exitY=1;exitDx=0;exitDy=0;" edge="1" parent="1" source="p-dpf_i9dS1HYKL783vK-4" target="p-dpf_i9dS1HYKL783vK-5">
          <mxGeometry relative="1" as="geometry" />
        </mxCell>
        <mxCell id="p-dpf_i9dS1HYKL783vK-4" value="Click on Sign in page" style="rounded=0;whiteSpace=wrap;html=1;" vertex="1" parent="1">
          <mxGeometry x="300" y="410" width="120" height="60" as="geometry" />
        </mxCell>
        <mxCell id="p-dpf_i9dS1HYKL783vK-20" style="edgeStyle=orthogonalEdgeStyle;rounded=0;orthogonalLoop=1;jettySize=auto;html=1;exitX=0;exitY=0.5;exitDx=0;exitDy=0;entryX=1;entryY=0.5;entryDx=0;entryDy=0;" edge="1" parent="1" source="p-dpf_i9dS1HYKL783vK-5" target="p-dpf_i9dS1HYKL783vK-6">
          <mxGeometry relative="1" as="geometry" />
        </mxCell>
        <mxCell id="p-dpf_i9dS1HYKL783vK-21" style="edgeStyle=orthogonalEdgeStyle;rounded=0;orthogonalLoop=1;jettySize=auto;html=1;exitX=0.5;exitY=1;exitDx=0;exitDy=0;entryX=0.5;entryY=0;entryDx=0;entryDy=0;" edge="1" parent="1" source="p-dpf_i9dS1HYKL783vK-5" target="p-dpf_i9dS1HYKL783vK-7">
          <mxGeometry relative="1" as="geometry" />
        </mxCell>
        <mxCell id="p-dpf_i9dS1HYKL783vK-5" value="Check all fields are completed" style="rhombus;whiteSpace=wrap;html=1;" vertex="1" parent="1">
          <mxGeometry x="300" y="510" width="120" height="100" as="geometry" />
        </mxCell>
        <mxCell id="p-dpf_i9dS1HYKL783vK-29" style="edgeStyle=orthogonalEdgeStyle;rounded=0;orthogonalLoop=1;jettySize=auto;html=1;exitX=0.5;exitY=0;exitDx=0;exitDy=0;entryX=0;entryY=0.75;entryDx=0;entryDy=0;" edge="1" parent="1" source="p-dpf_i9dS1HYKL783vK-6" target="p-dpf_i9dS1HYKL783vK-3">
          <mxGeometry relative="1" as="geometry" />
        </mxCell>
        <mxCell id="p-dpf_i9dS1HYKL783vK-6" value="Error message" style="rounded=0;whiteSpace=wrap;html=1;" vertex="1" parent="1">
          <mxGeometry x="120" y="530" width="120" height="60" as="geometry" />
        </mxCell>
        <mxCell id="p-dpf_i9dS1HYKL783vK-22" style="edgeStyle=orthogonalEdgeStyle;rounded=0;orthogonalLoop=1;jettySize=auto;html=1;exitX=0.5;exitY=1;exitDx=0;exitDy=0;entryX=0.5;entryY=0;entryDx=0;entryDy=0;" edge="1" parent="1" source="p-dpf_i9dS1HYKL783vK-7" target="p-dpf_i9dS1HYKL783vK-9">
          <mxGeometry relative="1" as="geometry" />
        </mxCell>
        <mxCell id="p-dpf_i9dS1HYKL783vK-28" style="edgeStyle=orthogonalEdgeStyle;rounded=0;orthogonalLoop=1;jettySize=auto;html=1;exitX=1;exitY=0.5;exitDx=0;exitDy=0;entryX=0;entryY=0.5;entryDx=0;entryDy=0;" edge="1" parent="1" source="p-dpf_i9dS1HYKL783vK-7" target="p-dpf_i9dS1HYKL783vK-8">
          <mxGeometry relative="1" as="geometry" />
        </mxCell>
        <mxCell id="p-dpf_i9dS1HYKL783vK-7" value="Validate credentials" style="rhombus;whiteSpace=wrap;html=1;" vertex="1" parent="1">
          <mxGeometry x="320" y="650" width="80" height="80" as="geometry" />
        </mxCell>
        <mxCell id="p-dpf_i9dS1HYKL783vK-8" value="if invalid credentials display(&quot;Error message&quot;)" style="rounded=0;whiteSpace=wrap;html=1;" vertex="1" parent="1">
          <mxGeometry x="540" y="660" width="120" height="60" as="geometry" />
        </mxCell>
        <mxCell id="p-dpf_i9dS1HYKL783vK-24" style="edgeStyle=orthogonalEdgeStyle;rounded=0;orthogonalLoop=1;jettySize=auto;html=1;exitX=0.5;exitY=1;exitDx=0;exitDy=0;entryX=0.5;entryY=0;entryDx=0;entryDy=0;" edge="1" parent="1" source="p-dpf_i9dS1HYKL783vK-9" target="p-dpf_i9dS1HYKL783vK-10">
          <mxGeometry relative="1" as="geometry" />
        </mxCell>
        <mxCell id="p-dpf_i9dS1HYKL783vK-9" value="proceed to next" style="rounded=0;whiteSpace=wrap;html=1;" vertex="1" parent="1">
          <mxGeometry x="300" y="770" width="120" height="60" as="geometry" />
        </mxCell>
        <mxCell id="p-dpf_i9dS1HYKL783vK-26" style="edgeStyle=orthogonalEdgeStyle;rounded=0;orthogonalLoop=1;jettySize=auto;html=1;exitX=0.5;exitY=1;exitDx=0;exitDy=0;" edge="1" parent="1" source="p-dpf_i9dS1HYKL783vK-10" target="p-dpf_i9dS1HYKL783vK-11">
          <mxGeometry relative="1" as="geometry" />
        </mxCell>
        <mxCell id="p-dpf_i9dS1HYKL783vK-10" value="sign in successful" style="rounded=0;whiteSpace=wrap;html=1;" vertex="1" parent="1">
          <mxGeometry x="300" y="880" width="120" height="60" as="geometry" />
        </mxCell>
        <mxCell id="p-dpf_i9dS1HYKL783vK-27" style="edgeStyle=orthogonalEdgeStyle;rounded=0;orthogonalLoop=1;jettySize=auto;html=1;exitX=0.5;exitY=1;exitDx=0;exitDy=0;entryX=0.5;entryY=0;entryDx=0;entryDy=0;" edge="1" parent="1" source="p-dpf_i9dS1HYKL783vK-11" target="p-dpf_i9dS1HYKL783vK-12">
          <mxGeometry relative="1" as="geometry" />
        </mxCell>
        <mxCell id="p-dpf_i9dS1HYKL783vK-11" value="Redirect to dashboard/home page" style="rounded=0;whiteSpace=wrap;html=1;" vertex="1" parent="1">
          <mxGeometry x="300" y="990" width="120" height="60" as="geometry" />
        </mxCell>
        <mxCell id="p-dpf_i9dS1HYKL783vK-12" value="end" style="ellipse;whiteSpace=wrap;html=1;" vertex="1" parent="1">
          <mxGeometry x="300" y="1120" width="120" height="80" as="geometry" />
        </mxCell>
        <mxCell id="p-dpf_i9dS1HYKL783vK-30" value="No" style="text;html=1;align=center;verticalAlign=middle;whiteSpace=wrap;rounded=0;" vertex="1" parent="1">
          <mxGeometry x="250" y="530" width="60" height="30" as="geometry" />
        </mxCell>
        <mxCell id="p-dpf_i9dS1HYKL783vK-33" value="Yes" style="text;html=1;align=center;verticalAlign=middle;whiteSpace=wrap;rounded=0;" vertex="1" parent="1">
          <mxGeometry x="380" y="600" width="60" height="30" as="geometry" />
        </mxCell>
        <mxCell id="p-dpf_i9dS1HYKL783vK-34" value="No" style="text;html=1;align=center;verticalAlign=middle;whiteSpace=wrap;rounded=0;" vertex="1" parent="1">
          <mxGeometry x="440" y="650" width="60" height="30" as="geometry" />
        </mxCell>
        <mxCell id="p-dpf_i9dS1HYKL783vK-35" value="Yes" style="text;html=1;align=center;verticalAlign=middle;whiteSpace=wrap;rounded=0;" vertex="1" parent="1">
          <mxGeometry x="370" y="730" width="60" height="30" as="geometry" />
        </mxCell>
      </root>
    </mxGraphModel>
  </diagram>
</mxfile>
